<svg width="128" height="116" viewBox="0 0 128 116" fill="none" xmlns="http://www.w3.org/2000/svg">
<path d="M127.352 37.1988C121.625 73.0898 90.7902 99.5778 54.4502 99.8318C50.8842 99.9688 47.3132 99.7498 43.7942 99.1838C28.6142 96.6098 17.2982 83.7818 16.6342 68.3988C16.7592 51.0628 30.7822 37.0398 48.1222 36.9148C65.4622 36.7898 79.6802 50.6168 80.0472 67.9528C80.1762 73.2068 77.9022 77.8238 73.2232 77.9528C68.2232 77.9528 65.8792 74.3828 65.8792 69.5738V56.2148C65.8832 51.7188 62.2582 48.0588 57.7622 48.0238H46.5592C37.5822 47.9618 29.7272 54.0358 27.5242 62.7388C25.3212 71.4418 29.3482 80.5198 37.2742 84.7348C41.1261 86.7817 45.553 87.478 49.8472 86.7125C54.1415 85.9469 58.055 83.7637 60.9622 80.5118L61.3532 79.9298L61.7442 80.5748C64.4822 84.2938 68.8962 86.3948 73.5062 86.1768C77.5514 85.8829 81.3215 84.0192 84.0112 80.9836C86.701 77.9479 88.0974 73.981 87.9022 69.9298C87.9412 66.4498 87.5542 62.9808 86.7422 59.6018C84.6648 50.0499 79.1253 41.6049 71.1913 35.8946C63.2574 30.1843 53.4905 27.6128 43.7732 28.6758C23.6452 30.8788 8.43024 47.9218 8.51224 68.1678C8.77424 89.7108 26.0242 107.191 47.5592 107.734C47.5592 107.734 50.4892 108 53.8012 107.929C69.876 107.824 85.5871 103.135 99.0902 94.4128C99.2812 94.2878 99.4732 94.5418 99.3442 94.7408C92.7699 101.822 84.7313 107.385 75.7879 111.043C66.8446 114.701 57.2115 116.365 47.5592 115.921C34.8092 116.151 22.5202 111.159 13.5392 102.109C4.55824 93.0588 -0.331758 80.7228 0.000242235 67.9768C0.00403363 60.4553 1.76186 53.0383 5.13407 46.315C8.50627 39.5918 13.3999 33.7476 19.4262 29.2468C27.5251 23.2851 37.3108 20.055 47.3672 20.0238H62.3982C68.2708 20.0198 74.0781 18.7927 79.4503 16.4207C84.8225 14.0487 89.6418 10.5838 93.6012 6.24682C93.6851 6.15443 93.7961 6.09101 93.9183 6.06567C94.0405 6.04034 94.1676 6.05439 94.2812 6.10582C94.5192 6.20782 94.6602 6.44982 94.6402 6.70382C94.0032 13.4618 91.7532 19.9658 88.0782 25.6728C87.9692 25.8758 87.9882 26.1258 88.1292 26.3058C88.1972 26.396 88.29 26.4643 88.3962 26.5025C88.5024 26.5407 88.6175 26.5471 88.7272 26.5208C95.6663 24.954 102.141 21.7802 107.63 17.2549C113.118 12.7295 117.468 6.97892 120.329 0.465817C120.401 0.348485 120.501 0.2515 120.621 0.184198C120.74 0.116896 120.875 0.081543 121.013 0.081543C121.15 0.081543 121.285 0.116896 121.405 0.184198C121.525 0.2515 121.625 0.348485 121.696 0.465817C127.59 11.7487 129.579 24.6656 127.352 37.1988ZM46.5202 55.8238C40.0982 55.8238 34.8872 61.0308 34.8872 67.4568C34.8891 70.5415 36.1153 73.4993 38.2965 75.6805C40.4777 77.8618 43.4355 79.088 46.5202 79.0898C52.9462 79.0898 58.1532 73.8788 58.1532 67.4568V56.6018C58.1437 56.3924 58.0563 56.1942 57.9081 56.046C57.7599 55.8978 57.5616 55.8103 57.3522 55.8008L46.5202 55.8238Z" fill="white" style="fill:white;fill-opacity:1;"/>
</svg>
