<svg width="129" height="116" viewBox="0 0 129 116" fill="none" xmlns="http://www.w3.org/2000/svg">
<path d="M127.368 37.1173C121.641 73.0083 90.8059 99.4963 54.4659 99.7503C50.8999 99.8873 47.3289 99.6683 43.8099 99.1023C28.6299 96.5283 17.3139 83.7003 16.6499 68.3173C16.7749 50.9813 30.7979 36.9583 48.1379 36.8333C65.4779 36.7083 79.6959 50.5353 80.0629 67.8713C80.1919 73.1253 77.9179 77.7423 73.2389 77.8713C68.2389 77.8713 65.8949 74.3013 65.8949 69.4923V56.1333C65.8989 51.6373 62.2739 47.9773 57.7779 47.9423H46.5749C37.5979 47.8803 29.7429 53.9543 27.5399 62.6573C25.3369 71.3603 29.3639 80.4383 37.2899 84.6533C41.1417 86.7002 45.5686 87.3965 49.8629 86.6309C54.1571 85.8654 58.0707 83.6821 60.9779 80.4303L61.3689 79.8483L61.7599 80.4933C64.4979 84.2123 68.9119 86.3133 73.5219 86.0953C77.5671 85.8014 81.3371 83.9376 84.0269 80.902C86.7167 77.8664 88.1131 73.8994 87.9179 69.8483C87.9569 66.3683 87.5699 62.8993 86.7579 59.5203C84.6804 49.9683 79.1409 41.5234 71.207 35.8131C63.273 30.1028 53.5061 27.5313 43.7889 28.5943C23.6609 30.7973 8.44587 47.8403 8.52787 68.0863C8.78987 89.6293 26.0399 107.109 47.5749 107.652C47.5749 107.652 50.5049 107.918 53.8169 107.847C69.8916 107.742 85.6027 103.053 99.1059 94.3313C99.2969 94.2063 99.4889 94.4603 99.3599 94.6593C92.7856 101.74 84.7469 107.303 75.8036 110.961C66.8602 114.619 57.2271 116.284 47.5749 115.839C34.8249 116.069 22.5359 111.077 13.5549 102.027C4.57387 92.9773 -0.316133 80.6413 0.0158672 67.8953C0.0196586 60.3737 1.77748 52.9567 5.14969 46.2335C8.5219 39.5102 13.4156 33.6661 19.4419 29.1653C27.5407 23.2036 37.3264 19.9734 47.3829 19.9423H62.4139C68.2864 19.9382 74.0938 18.7111 79.466 16.3391C84.8382 13.9672 89.6574 10.5023 93.6169 6.16527C93.7007 6.07288 93.8117 6.00946 93.9339 5.98413C94.0561 5.95879 94.1832 5.97285 94.2969 6.02427C94.5349 6.12627 94.6759 6.36827 94.6559 6.62227C94.0189 13.3803 91.7689 19.8843 88.0939 25.5913C87.9849 25.7943 88.0039 26.0443 88.1449 26.2243C88.2128 26.3144 88.3056 26.3828 88.4118 26.421C88.518 26.4591 88.6331 26.4655 88.7429 26.4393C95.682 24.8725 102.156 21.6987 107.645 17.1733C113.134 12.648 117.484 6.89738 120.345 0.384274C120.416 0.266942 120.517 0.169957 120.636 0.102655C120.756 0.0353528 120.891 0 121.028 0C121.166 0 121.301 0.0353528 121.42 0.102655C121.54 0.169957 121.641 0.266942 121.712 0.384274C127.606 11.6671 129.595 24.584 127.368 37.1173ZM46.5359 55.7423C40.1139 55.7423 34.9029 60.9493 34.9029 67.3753C34.9047 70.46 36.1309 73.4178 38.3121 75.599C40.4934 77.7802 43.4512 79.0064 46.5359 79.0083C52.9619 79.0083 58.1689 73.7973 58.1689 67.3753V56.5203C58.1594 56.3109 58.0719 56.1126 57.9237 55.9644C57.7755 55.8162 57.5772 55.7288 57.3679 55.7193L46.5359 55.7423Z" fill="black" style="fill:black;fill-opacity:1;"/>
</svg>
